<svg xmlns="http://www.w3.org/2000/svg" fill="currentColor" viewBox="0 0 1340.118 657.374">
    <g transform="translate(-1463.312 3536.92)">
        <g>
            <path d="M.374-1123.359c108.914-21.986,217.457-43.524,300.3-34.167,39.315,4.442,72.751,15.785,100.6,31.092a232.584,232.584,0,0,1,75.872,66.094,222.076,222.076,0,0,1,33.434,67.8c6.554,21.7,9.65,42.491,11.95,60.724,1.24,9.832,2.029,16.787,2.776,23.38,2.676,23.618,4.857,42.854,10.658,61.77A220.975,220.975,0,0,0,549.42-813.58c6.1,12.232,12.524,22.7,17.713,29.535,3.654,4.812,5.912,7.278,6.908,7.461,1.385.255-1.737-.869-1.231-1.864,2.312-4.549,4.521-11.969,6.98-22.945,2.527-11.28,5.35-26.714,8.818-46.827.759-4.4,1.547-9.021,2.364-13.81,6.614-38.765,15.113-88.566,25.443-124.409,5.828-20.221,12.241-35.91,18.82-46.9,8.04-13.425,17.03-20.766,26.342-21.816,10.045-1.131,18.72,4.553,26.546,15.7,6.233,8.882,12.225,21.665,18.255,37.416,5.465,14.273,11.046,31.186,16.547,49.485,6.257,20.817,12.364,43.251,18.049,65.529,1.1,4.3,3.4,13.527,5.659,22.593,8.259,33.12,15.856,63.58,23.581,79.164,2.4,4.836,4.585,7.866,6.581,9.315a2.384,2.384,0,0,0,.841.472,1.778,1.778,0,0,0,.781-.249c1.9-.94,4.115-3.223,6.583-6.623,4.931-6.789,9.895-17,14.507-30.644a325.341,325.341,0,0,0,11.694-47.8v-.037c2.489-14.269,4.467-29.254,6.6-45.335,4.22-31.914,9-68.013,18.171-105.726,3.486-14.357,7.554-28.75,11.886-43.2a1310.186,1310.186,0,0,1-144.975-12.7c-64.313-9.508-121.475-24.045-163.309-43.582-44.26-20.671-71.464-46.96-88.016-74.27-16.645-27.46-22.4-55.7-23.85-80.284-1.386-23.462,1.157-43.792,6.728-61.33a121.993,121.993,0,0,1,28.475-48.311,121.9,121.9,0,0,1,41.572-28.246,129.808,129.808,0,0,1,50.246-9.628c19.654.1,39.406,4.332,59.114,8.551,14.533,3.119,29.043,6.222,42.593,7.5,29.7,2.784,58.33-2.712,85.867-8,1.083-.207-1.869.359,5.326-1.013,15.216-2.9,30.133-5.584,44.649-6.693,15.032-1.149,29.686-.606,43.877,3.055a89.375,89.375,0,0,1,42.333,24.242c10.705,10.968,19.567,25.643,25.534,44.881,6.142,19.765,9.205,44.486,9.173,71.806a442.267,442.267,0,0,1-9.118,86.274c-6.812,33.56-17.246,66.949-27.568,99.949q-1.448,4.653-2.9,9.295c16.4.288,32.817.3,49.154.045,142.938-2.258,280.348-25.439,417.734-48.689v19.462c-136.923,23.168-273.919,46.112-417.431,48.38-18.4.29-36.893.241-55.328-.148-4.866,16.023-9.413,31.819-13.138,47.159-8.934,36.746-13.641,72.282-17.8,103.7-2.242,16.932-4.324,32.706-6.669,46.161h-.008a344.963,344.963,0,0,1-12.436,50.69c-5.257,15.547-11.136,27.485-17.134,35.752-4.26,5.861-8.8,10.157-13.646,12.557a20.21,20.21,0,0,1-10.771,2.2A20.716,20.716,0,0,1,765.53-760.4c-4.469-3.246-8.664-8.606-12.514-16.374-8.638-17.424-16.481-48.874-25.009-83.071-1.438-5.767-2.9-11.633-5.659-22.442-5.683-22.272-11.724-44.488-17.824-64.779-5.347-17.789-10.776-34.238-16.1-48.133-5.5-14.376-10.789-25.781-16-33.209-3.622-5.16-6.568-7.911-8.745-7.667-3.13.353-7.207,4.581-11.995,12.577-5.8,9.678-11.538,23.821-16.868,42.315-9.889,34.312-18.34,83.833-24.917,122.381-.817,4.789-1.606,9.408-2.364,13.81-3.418,19.825-6.276,35.38-9.043,47.727-2.834,12.65-5.532,21.5-8.557,27.452-4.831,9.5-10.95,13.625-19.35,12.079-6.019-1.107-12.025-5.958-18.7-14.746a214.782,214.782,0,0,1-19.665-32.541,239.7,239.7,0,0,1-14.583-36.016c-6.357-20.73-8.625-40.736-11.408-65.3-.905-7.989-1.863-16.435-2.7-23.08-2.175-17.229-5.105-36.9-11.349-57.569a203.165,203.165,0,0,0-30.5-62.015,213.4,213.4,0,0,0-69.638-60.612c-25.809-14.184-56.863-24.7-93.467-28.839-81-9.149-189.551,12.687-298.195,34.624Zm853.28,49.284q2.249-7.246,4.531-14.518c10.234-32.754,20.6-65.893,27.113-97.995a423.051,423.051,0,0,0,8.743-82.519c.032-25.4-2.76-48.187-8.344-66.173-5-16.113-12.268-28.238-20.955-37.145a70.468,70.468,0,0,0-33.4-19.057c-11.806-3.047-24.441-3.462-37.64-2.457-13.716,1.045-27.98,3.613-42.545,6.389-3.678.7-.634.128-5.251,1.013-28.782,5.528-58.7,11.271-91.2,8.224-15.064-1.412-29.944-4.595-44.847-7.786-18.86-4.044-37.76-8.1-55.207-8.184a110.814,110.814,0,0,0-42.886,8.2,102.741,102.741,0,0,0-35.036,23.817,103.02,103.02,0,0,0-24.044,40.8c-4.866,15.319-7.071,33.337-5.826,54.42,1.3,22.064,6.4,47.284,21.07,71.5,14.768,24.363,39.36,47.968,79.755,66.833,39.975,18.668,95.312,32.666,157.976,41.929,46.535,6.88,96.942,11.123,147.995,12.712" transform="translate(1462.938 -2123.29)" />
        </g>
    </g>
</svg>
