<svg xmlns="http://www.w3.org/2000/svg" fill="currentColor" viewBox="0 0 18.874 12.978">
    <g id="list-text" transform="translate(-0.001 -80)">
        <g transform="translate(3.545 80)">
            <g>
                <path
                    d="M109.151,80H97.359a1.179,1.179,0,1,0,0,2.358h11.792a1.179,1.179,0,1,0,0-2.358Z"
                    transform="translate(-96.18 -80)"/>
            </g>
        </g>
        <g transform="translate(0.001 80.005)">
            <g transform="translate(0 0)">
                <path
                    d="M2.366,81.309a1.179,1.179,0,0,0-2.358,0,1,1,0,0,0,0,.23,1.063,1.063,0,0,0,.065.224,1.369,1.369,0,0,0,.112.2,1.079,1.079,0,0,0,.147.183,1.044,1.044,0,0,0,.177.142.961.961,0,0,0,.2.112.973.973,0,0,0,.248.088,1.035,1.035,0,0,0,.23,0,1.179,1.179,0,0,0,.831-.342,1.079,1.079,0,0,0,.147-.183,1.369,1.369,0,0,0,.112-.2,1.1,1.1,0,0,0,.088-.224A1,1,0,0,0,2.366,81.309Z"
                    transform="translate(-0.001 -80.135)"/>
            </g>
        </g>
        <g transform="translate(0.007 85.311)">
            <g>
                <path
                    d="M2.538,225.309a1.008,1.008,0,0,0,0-.23.956.956,0,0,0-.088-.218,1.178,1.178,0,0,0-.112-.206.849.849,0,0,0-.147-.177,1.179,1.179,0,0,0-2.011.831,1.176,1.176,0,0,0,.195.654,1.132,1.132,0,0,0,.153.177.861.861,0,0,0,.177.147.956.956,0,0,0,.2.112,1,1,0,0,0,.224.065.979.979,0,0,0,.23.024,1.006,1.006,0,0,0,.23,0,.957.957,0,0,0,.218-.065.984.984,0,0,0,.206-.112.86.86,0,0,0,.177-.147.861.861,0,0,0,.147-.177.948.948,0,0,0,.112-.2,1,1,0,0,0,.088-.248A.976.976,0,0,0,2.538,225.309Z"
                    transform="translate(-0.18 -224.135)"/>
            </g>
        </g>
        <g transform="translate(0.007 90.618)">
            <g transform="translate(0 0)">
                <path
                    d="M2.537,369.309a1.012,1.012,0,0,0,0-.23,1,1,0,0,0-.088-.224,1.369,1.369,0,0,0-.112-.2.86.86,0,0,0-.147-.177,1.179,1.179,0,0,0-1.663,0,.86.86,0,0,0-.147.177,1.369,1.369,0,0,0-.112.2.966.966,0,0,0-.065.224,1.013,1.013,0,0,0-.024.23,1.179,1.179,0,0,0,.348.831.861.861,0,0,0,.177.147.959.959,0,0,0,.2.112,1,1,0,0,0,.224.065.974.974,0,0,0,.23.024,1,1,0,0,0,.23,0,.956.956,0,0,0,.218-.065.987.987,0,0,0,.206-.112.862.862,0,0,0,.177-.147.861.861,0,0,0,.147-.177.945.945,0,0,0,.112-.2,1,1,0,0,0,.088-.248A.976.976,0,0,0,2.537,369.309Z"
                    transform="translate(-0.178 -368.135)"/>
            </g>
        </g>
        <g transform="translate(3.545 85.306)">
            <g transform="translate(0 0)">
                <path
                    d="M110.331,224H97.359a1.179,1.179,0,1,0,0,2.358h12.971a1.179,1.179,0,1,0,0-2.358Z"
                    transform="translate(-96.18 -224)"/>
            </g>
        </g>
        <g transform="translate(3.545 90.613)">
            <g transform="translate(0 0)">
                <path
                    d="M105.024,368H97.359a1.179,1.179,0,1,0,0,2.358h7.665a1.179,1.179,0,0,0,0-2.358Z"
                    transform="translate(-96.18 -368)"/>
            </g>
        </g>
    </g>
</svg>
