<svg xmlns="http://www.w3.org/2000/svg" fill="currentColor" viewBox="0 0 19.678 16.316">
    <g transform="translate(0 -43.729)">
        <g transform="translate(0 50.876)">
            <g transform="translate(0 0)">
                <path
                      d="M16.8,231.159H14.869a2.874,2.874,0,0,0-.758.1,2.885,2.885,0,0,0-2.57-1.58h-3.4a2.885,2.885,0,0,0-2.57,1.58,2.874,2.874,0,0,0-.758-.1H2.882A2.886,2.886,0,0,0,0,234.041v3.079a1.731,1.731,0,0,0,1.729,1.729H17.948a1.731,1.731,0,0,0,1.729-1.729v-3.079A2.886,2.886,0,0,0,16.8,231.159Zm-11.541,1.4V237.7H1.729a.577.577,0,0,1-.576-.577v-3.079a1.731,1.731,0,0,1,1.729-1.729H4.809a1.724,1.724,0,0,1,.452.06C5.257,232.435,5.254,232.5,5.254,232.563Zm8.017,5.134H6.407v-5.134a1.731,1.731,0,0,1,1.729-1.729h3.4a1.731,1.731,0,0,1,1.729,1.729Zm5.254-.577a.577.577,0,0,1-.576.577H14.424v-5.134c0-.064,0-.127-.007-.191a1.726,1.726,0,0,1,.452-.06H16.8a1.731,1.731,0,0,1,1.729,1.729Z"
                      transform="translate(0 -229.68)" />
            </g>
        </g>
        <g  transform="translate(1.284 46.91)">
            <g>
                <path
                      d="M35.975,126.5a2.561,2.561,0,1,0,2.561,2.561A2.564,2.564,0,0,0,35.975,126.5Zm0,3.97a1.408,1.408,0,1,1,1.408-1.408A1.41,1.41,0,0,1,35.975,130.474Z"
                      transform="translate(-33.414 -126.504)" />
            </g>
        </g>
        <g transform="translate(6.417 43.729)">
            <g  transform="translate(0 0)">
                <path
                      d="M170.384,43.729a3.422,3.422,0,1,0,3.422,3.422A3.426,3.426,0,0,0,170.384,43.729Zm0,5.691a2.269,2.269,0,1,1,2.269-2.269A2.272,2.272,0,0,1,170.384,49.42Z"
                      transform="translate(-166.962 -43.729)" />
            </g>
        </g>
        <g transform="translate(13.271 46.91)">
            <g >
                <path
                      d="M347.855,126.5a2.561,2.561,0,1,0,2.561,2.561A2.564,2.564,0,0,0,347.855,126.5Zm0,3.97a1.408,1.408,0,1,1,1.408-1.408A1.41,1.41,0,0,1,347.855,130.474Z"
                      transform="translate(-345.294 -126.504)" />
            </g>
        </g>
    </g>
</svg>
