<svg xmlns="http://www.w3.org/2000/svg" xmlns:xlink="http://www.w3.org/1999/xlink" width="360" height="360" viewBox="0 0 360 360">
  <defs>
    <clipPath id="clip-favicon_1">
      <rect width="360" height="360"/>
    </clipPath>
  </defs>
  <g id="favicon_1" data-name="favicon – 1" clip-path="url(#clip-favicon_1)">
    <g id="Group_49" data-name="Group 49">
      <g id="Group_48" data-name="Group 48">
        <circle id="Ellipse_8" data-name="Ellipse 8" cx="180" cy="180" r="180" fill="#778ff6"/>
      </g>
    </g>
    <path id="Subtraction_1" data-name="Subtraction 1" d="M354.135,330.55a29.291,29.291,0,0,1-9.42-1.632,29.711,29.711,0,0,1-5.107-2.249,27.944,27.944,0,0,1-4.552-3.19,35.606,35.606,0,0,1-4.211-4.314,57.274,57.274,0,0,1-4.084-5.62c-1.028-1.561-2.991-4.6-5.264-8.124l-.015-.023-.023-.036c-1.9-2.938-4.046-6.268-6.035-9.331-4.422-6.87-7.974-12.341-8.087-12.454a.1.1,0,0,0-.074-.033c-.368,0-1.665,1.965-7.549,11.125-6.786,10.534-11.433,17.734-14.084,21.678a31.961,31.961,0,0,1-4.39,5.325,31.071,31.071,0,0,1-11.465,7.088,32.249,32.249,0,0,1-6.741,1.559,24.789,24.789,0,0,1-3.118.2,24.417,24.417,0,0,1-7.4-1.153,27.335,27.335,0,0,1-6.974-3.4,27.846,27.846,0,0,1-4.953-4.227,46.877,46.877,0,0,1-4.721-6.125c-1.368-2.074-3.457-5.78-5.731-10.168-2.244-4.33-4.3-8.61-5.644-11.744a153.079,153.079,0,0,1-6.225-17.952c-1.814-6.4-3.371-13.191-4.629-20.174s-2.189-14.012-2.771-20.911a184.919,184.919,0,0,1-.653-20.163,127.92,127.92,0,0,1,2.08-21.065,70.76,70.76,0,0,1,5.272-16.57,47.293,47.293,0,0,1,3.611-6.411,45.582,45.582,0,0,1,4.471-5.645,42.174,42.174,0,0,1,5.189-4.725,37.676,37.676,0,0,1,5.766-3.652,49.733,49.733,0,0,1,11.8-3.814,44.769,44.769,0,0,1,6.943-.448,52.393,52.393,0,0,1,11.088.992,47.813,47.813,0,0,1,9.074,3.25,75.518,75.518,0,0,1,9.654,5.585c3.327,2.243,6.138,4.429,20.933,16.58,2.128,1.761,5.562,4.542,8.882,7.232l.005,0,.011.009c1.444,1.169,2.807,2.274,4.025,3.263l4.268,3.433.038.031c2.937,2.361,5.973,4.8,7.688,6.188,3.389,2.716,5.707,4.536,7.526,5.8a30.17,30.17,0,0,0,4.856,2.8,30.637,30.637,0,0,0,5.712,2.15,30,30,0,0,0,6.089.807c.485.024.978.037,1.464.037a28.772,28.772,0,0,0,7.458-.975,25.711,25.711,0,0,0,6.519-2.727,20.349,20.349,0,0,0,5.046-4.184,15.381,15.381,0,0,0,3.039-5.345,16.836,16.836,0,0,0,.851-8.679,15.253,15.253,0,0,0-1.485-5.006,15.021,15.021,0,0,0-3.313-3.984,27.334,27.334,0,0,0-18.418-7.161,20.687,20.687,0,0,0-10.839,2.792c-3.279,1.907-6.547,4.928-10.287,9.506-2.365,2.879-3.129,3.716-3.635,3.716a.578.578,0,0,1-.351-.136c-.274-.193-2.081-1.643-4.582-3.65l-.138-.111c-.966-.775-2.06-1.653-3.173-2.544-4.536-3.619-7.125-5.947-6.926-6.227a85.2,85.2,0,0,1,10.481-11.681,61.884,61.884,0,0,1,5.435-4.47,40.3,40.3,0,0,1,5.25-3.27,46.44,46.44,0,0,1,5.664-2.262,37.451,37.451,0,0,1,5.635-1.474,52.063,52.063,0,0,1,7.2-.409,58.19,58.19,0,0,1,7.463.409c13.8,1.905,27.388,11.156,33.044,22.5a35.72,35.72,0,0,1,2.97,10.357,37.256,37.256,0,0,1,.126,10.97,44.3,44.3,0,0,1-1.678,7.083,38.442,38.442,0,0,1-2.694,6.266,37.744,37.744,0,0,1-7.236,9.073,42.582,42.582,0,0,1-9.905,7,46.347,46.347,0,0,1-6.558,2.574,51.5,51.5,0,0,1-7.139,1.786,48.217,48.217,0,0,1-7.638.512,51.919,51.919,0,0,1-28.153-8.14c-4.023-2.554-28.2-21.835-42.407-33.821-7.544-6.357-12.954-10.3-17.542-12.77a25.922,25.922,0,0,0-12.754-3.576,23.825,23.825,0,0,0-5.267.647,22.524,22.524,0,0,0-4.948,1.727,18.375,18.375,0,0,0-5.3,3.984,26.363,26.363,0,0,0-4.215,6.228,46.95,46.95,0,0,0-3.17,8.556,87.35,87.35,0,0,0-2.169,10.967c-.289,2.16-.465,7.48-.46,13.885.005,6.443.2,12.233.5,15.11,2.667,25.973,7.852,44.829,17.335,63.049a89.47,89.47,0,0,0,4.745,8.173,18.753,18.753,0,0,0,3.613,4.32,5.021,5.021,0,0,0,3.6,1.129c4.013,0,6.255-1.537,9.6-6.577,3.778-5.739,9.946-15.3,16.1-24.947,3.436-5.376,6.4-9.552,7.739-10.9a19.57,19.57,0,0,1,6.305-4.159,19.279,19.279,0,0,1,7.278-1.487,16.319,16.319,0,0,1,2.28.158,20.54,20.54,0,0,1,6.079,1.98,18.7,18.7,0,0,1,5.064,3.585A143.386,143.386,0,0,1,329.2,279.88c1.617,2.528,3.551,5.526,5.422,8.426,2.272,3.522,4.418,6.85,5.838,9.087,2.661,4.094,5.386,8.144,6.075,9.029a10.41,10.41,0,0,0,7.605,3.63,5.618,5.618,0,0,0,2.571-.555c2.631-1.362,5.691-5.883,10.563-15.606a137.672,137.672,0,0,0,8.358-20.627,133.673,133.673,0,0,0,4.14-16.385,65.37,65.37,0,0,1,2.476-9.38,9.089,9.089,0,0,1,3.677-3.805,10.479,10.479,0,0,1,5.172-1.361,9.7,9.7,0,0,1,4.925,1.313A11.416,11.416,0,0,1,400.9,250.3c.388,1.717.307,2.659-.619,7.2-3.8,19.34-7.8,31.449-15.283,46.275a123.379,123.379,0,0,1-6.06,10.98,43.771,43.771,0,0,1-5.393,6.923,29.143,29.143,0,0,1-9.08,6.638,24.753,24.753,0,0,1-10.326,2.233h0Zm-69.471-81.027h0a8.551,8.551,0,0,1-3.4-.661,10.807,10.807,0,0,1-6.187-9.667,8.971,8.971,0,0,1,.77-3.721c.261-.579,1.431-2.486,3.384-5.514,1.742-2.7,4.012-6.148,6.391-9.7,4.3-6.429,9.06-13.349,9.34-13.349a91.723,91.723,0,0,1,7.932,6.071c4.374,3.562,7.429,6.2,7.429,6.422,0,.4-4.7,7.529-9.064,13.982s-9.3,13.563-9.818,13.923a12.226,12.226,0,0,1-3.3,1.652A11.266,11.266,0,0,1,284.663,249.523Z" transform="translate(-125.641 -61.3)" fill="#fff"/>
  </g>
</svg>
