<svg xmlns="http://www.w3.org/2000/svg" fill="currentColor" viewBox="0 0 235.774 48.513">
    <g transform="translate(-170.882 -289.308)">
        <g transform="translate(170.882 289.308)">
            <path
                d="M39.425,48.513a8.076,8.076,0,0,1-2.58-.443,8.168,8.168,0,0,1-1.4-.611,7.654,7.654,0,0,1-1.246-.867,9.711,9.711,0,0,1-1.153-1.172,15.57,15.57,0,0,1-1.118-1.527c-.281-.424-.819-1.251-1.441-2.208l0-.006-.006-.01c-.519-.8-1.108-1.7-1.653-2.536-1.211-1.867-2.184-3.354-2.215-3.385a.028.028,0,0,0-.02-.009c-.1,0-.456.534-2.067,3.023-1.858,2.863-3.131,4.82-3.857,5.892a8.7,8.7,0,0,1-1.2,1.447,8.519,8.519,0,0,1-3.14,1.926,8.887,8.887,0,0,1-1.846.424,6.839,6.839,0,0,1-.854.054,6.733,6.733,0,0,1-2.026-.313,7.509,7.509,0,0,1-1.91-.925,7.611,7.611,0,0,1-1.356-1.149,12.755,12.755,0,0,1-1.293-1.665c-.375-.564-.947-1.571-1.569-2.763-.614-1.177-1.178-2.34-1.546-3.192a41.391,41.391,0,0,1-1.7-4.879c-.5-1.74-.923-3.585-1.268-5.483s-.6-3.808-.759-5.683a49.88,49.88,0,0,1-.179-5.48,34.512,34.512,0,0,1,.57-5.725,19.127,19.127,0,0,1,1.444-4.5A12.825,12.825,0,0,1,3.016,5,12.4,12.4,0,0,1,4.241,3.467,11.518,11.518,0,0,1,5.662,2.183,10.328,10.328,0,0,1,7.24,1.19,13.692,13.692,0,0,1,10.472.153a12.352,12.352,0,0,1,1.9-.122A14.453,14.453,0,0,1,15.41.3a13.159,13.159,0,0,1,2.485.883A20.72,20.72,0,0,1,20.538,2.7c.911.61,1.681,1.2,5.732,4.506.583.479,1.523,1.235,2.432,1.965h0l0,0,1.1.887L30.979,11l.01.008c.8.642,1.636,1.305,2.105,1.682.928.738,1.563,1.233,2.061,1.577a8.278,8.278,0,0,0,1.33.76,8.43,8.43,0,0,0,1.564.584,8.273,8.273,0,0,0,1.668.219c.133.007.268.01.4.01a7.936,7.936,0,0,0,2.042-.265,7.07,7.07,0,0,0,1.785-.741A5.563,5.563,0,0,0,45.327,13.7a4.173,4.173,0,0,0,.832-1.453,4.543,4.543,0,0,0,.233-2.359,4.123,4.123,0,0,0-.407-1.361,4.089,4.089,0,0,0-.907-1.083A7.517,7.517,0,0,0,40.035,5.5a5.7,5.7,0,0,0-2.968.759,10.779,10.779,0,0,0-2.817,2.584c-.648.782-.857,1.01-1,1.01a.159.159,0,0,1-.1-.037c-.075-.052-.57-.447-1.255-.992l-.038-.03L31,8.1A9.147,9.147,0,0,1,29.1,6.4,23.216,23.216,0,0,1,31.97,3.23a16.916,16.916,0,0,1,1.488-1.215A11.047,11.047,0,0,1,34.9,1.126,12.774,12.774,0,0,1,36.447.512a10.32,10.32,0,0,1,1.543-.4A14.364,14.364,0,0,1,39.962,0a16.055,16.055,0,0,1,2.044.111,12.41,12.41,0,0,1,9.049,6.114,9.653,9.653,0,0,1,.813,2.815,10.05,10.05,0,0,1,.034,2.982,11.963,11.963,0,0,1-.46,1.925,10.406,10.406,0,0,1-.738,1.7,10.271,10.271,0,0,1-1.981,2.466,11.662,11.662,0,0,1-2.713,1.9,12.748,12.748,0,0,1-1.8.7,14.19,14.19,0,0,1-1.955.485,13.3,13.3,0,0,1-2.092.139,15.39,15.39,0,0,1-2.888-.234,15.449,15.449,0,0,1-2.5-.791,15.263,15.263,0,0,1-2.323-1.187c-1.1-.694-7.722-5.934-11.613-9.192a29.988,29.988,0,0,0-4.8-3.471A7.14,7.14,0,0,0,12.549,5.5a6.571,6.571,0,0,0-1.442.176,6.2,6.2,0,0,0-1.355.469A5.029,5.029,0,0,0,8.3,7.223,7.163,7.163,0,0,0,7.145,8.915a12.7,12.7,0,0,0-.868,2.325,23.582,23.582,0,0,0-.594,2.981c-.079.587-.127,2.033-.126,3.774s.054,3.325.136,4.107c.73,7.059,2.15,12.184,4.747,17.136a24.271,24.271,0,0,0,1.3,2.221,5.107,5.107,0,0,0,.989,1.174,1.382,1.382,0,0,0,.985.307c1.1,0,1.713-.418,2.628-1.788,1.035-1.56,2.724-4.158,4.408-6.78a24.372,24.372,0,0,1,2.119-2.962,5.43,5.43,0,0,1,3.72-1.534,4.5,4.5,0,0,1,.624.043,5.655,5.655,0,0,1,1.665.538,5.119,5.119,0,0,1,1.387.974A38.972,38.972,0,0,1,32.6,34.742c.443.687.972,1.5,1.485,2.29.622.957,1.21,1.862,1.6,2.47.729,1.113,1.475,2.213,1.664,2.454a2.719,2.719,0,0,0,.957.721,2.747,2.747,0,0,0,1.126.265,1.548,1.548,0,0,0,.7-.151c.721-.37,1.559-1.6,2.893-4.242a37.253,37.253,0,0,0,2.289-5.606,36.1,36.1,0,0,0,1.134-4.453,17.662,17.662,0,0,1,.678-2.549,2.479,2.479,0,0,1,1.007-1.034,2.887,2.887,0,0,1,1.416-.37,2.673,2.673,0,0,1,1.349.357A3.1,3.1,0,0,1,52.231,26.7a4.06,4.06,0,0,1-.17,1.957,43.684,43.684,0,0,1-4.185,12.577,33.464,33.464,0,0,1-1.66,2.984A11.908,11.908,0,0,1,44.739,46.1a7.978,7.978,0,0,1-2.487,1.8,6.822,6.822,0,0,1-2.828.607h0ZM20.4,26.491h0a2.357,2.357,0,0,1-.932-.18,2.933,2.933,0,0,1-1.694-2.627,2.422,2.422,0,0,1,.211-1.011c.071-.157.392-.676.927-1.5.477-.734,1.1-1.671,1.75-2.637,1.178-1.747,2.481-3.628,2.558-3.628a25.1,25.1,0,0,1,2.172,1.65A21.829,21.829,0,0,1,27.426,18.3c0,.109-1.287,2.046-2.482,3.8s-2.547,3.686-2.689,3.784a3.358,3.358,0,0,1-.9.449A3.107,3.107,0,0,1,20.4,26.491Z"
                transform="translate(0 0)" />
            <path
                d="M13.658-32.067a2.936,2.936,0,0,1-1.847-.544,3.694,3.694,0,0,1-1.127-1.713L3.454-54.612a2.463,2.463,0,0,1,.184-2.335A2.6,2.6,0,0,1,5.93-57.9a2.706,2.706,0,0,1,1.794.537,3.63,3.63,0,0,1,1.015,1.681l5.889,17.566H13.086L19.318-55.67a4,4,0,0,1,1.062-1.688,2.459,2.459,0,0,1,1.653-.544,2.363,2.363,0,0,1,1.628.544,3.983,3.983,0,0,1,1.015,1.724l5.95,17.517H29.3L35.3-55.683a3.744,3.744,0,0,1,1.01-1.669,2.583,2.583,0,0,1,1.752-.549,2.288,2.288,0,0,1,2.045.955,2.489,2.489,0,0,1,.149,2.335L32.97-34.287a3.7,3.7,0,0,1-1.1,1.677,2.878,2.878,0,0,1-1.841.544A2.883,2.883,0,0,1,28.2-32.61a3.676,3.676,0,0,1-1.1-1.713L21.451-50.306h.856L16.572-34.287a3.852,3.852,0,0,1-1.091,1.677A2.8,2.8,0,0,1,13.658-32.067Zm34.306-.025a2.553,2.553,0,0,1-1.993-.767,3.117,3.117,0,0,1-.7-2.169V-47.27a3.108,3.108,0,0,1,.7-2.182,2.575,2.575,0,0,1,1.993-.755,2.615,2.615,0,0,1,2.005.755,3.073,3.073,0,0,1,.708,2.182v12.242a3.133,3.133,0,0,1-.69,2.169A2.581,2.581,0,0,1,47.964-32.091Zm0-21.05a3.334,3.334,0,0,1-2.28-.71,2.525,2.525,0,0,1-.8-2,2.518,2.518,0,0,1,.8-2.011,3.373,3.373,0,0,1,2.28-.7,3.364,3.364,0,0,1,2.292.7,2.538,2.538,0,0,1,.792,2.011,2.545,2.545,0,0,1-.792,2A3.326,3.326,0,0,1,47.964-53.141ZM63.116-32a9.392,9.392,0,0,1-4.145-.809,5.254,5.254,0,0,1-2.453-2.4,8.751,8.751,0,0,1-.8-3.964v-6.745H54.182a2.156,2.156,0,0,1-1.553-.525,1.953,1.953,0,0,1-.549-1.481,1.945,1.945,0,0,1,.549-1.493,2.189,2.189,0,0,1,1.553-.513h1.535v-2.751a2.72,2.72,0,0,1,.708-2.029,2.74,2.74,0,0,1,2.005-.7,2.7,2.7,0,0,1,1.992.7,2.748,2.748,0,0,1,.7,2.029v2.751h3.366a2.185,2.185,0,0,1,1.559.513,1.955,1.955,0,0,1,.544,1.493,1.963,1.963,0,0,1-.544,1.481,2.153,2.153,0,0,1-1.559.525H61.119v6.517a3.236,3.236,0,0,0,.689,2.262,2.887,2.887,0,0,0,2.214.746,4.525,4.525,0,0,0,1.017-.107,5.32,5.32,0,0,1,.845-.132.98.98,0,0,1,.822.308,2.256,2.256,0,0,1,.326,1.463,3.843,3.843,0,0,1-.277,1.528,1.665,1.665,0,0,1-1,.915,7.97,7.97,0,0,1-1.289.291A9.011,9.011,0,0,1,63.116-32Zm15.235,0a9.392,9.392,0,0,1-4.145-.809,5.254,5.254,0,0,1-2.453-2.4,8.751,8.751,0,0,1-.8-3.964v-6.745H69.417a2.157,2.157,0,0,1-1.553-.525,1.953,1.953,0,0,1-.549-1.481,1.945,1.945,0,0,1,.549-1.493,2.189,2.189,0,0,1,1.553-.513h1.535v-2.751A2.72,2.72,0,0,1,71.66-54.7a2.74,2.74,0,0,1,2.005-.7,2.7,2.7,0,0,1,1.992.7,2.748,2.748,0,0,1,.7,2.029v2.751h3.366a2.185,2.185,0,0,1,1.559.513,1.955,1.955,0,0,1,.544,1.493,1.963,1.963,0,0,1-.544,1.481,2.153,2.153,0,0,1-1.559.525H76.353v6.517a3.236,3.236,0,0,0,.689,2.262,2.887,2.887,0,0,0,2.214.746,4.525,4.525,0,0,0,1.017-.107,5.32,5.32,0,0,1,.845-.132.98.98,0,0,1,.822.308,2.256,2.256,0,0,1,.326,1.463,3.843,3.843,0,0,1-.277,1.528,1.665,1.665,0,0,1-1,.915,7.97,7.97,0,0,1-1.289.291A9.011,9.011,0,0,1,78.351-32ZM95.2-32a11.808,11.808,0,0,1-5.333-1.12,8.087,8.087,0,0,1-3.449-3.176,9.417,9.417,0,0,1-1.208-4.857,9.514,9.514,0,0,1,1.161-4.769,8.423,8.423,0,0,1,3.2-3.218A9.189,9.189,0,0,1,94.216-50.3a9.123,9.123,0,0,1,3.457.625,7.4,7.4,0,0,1,2.64,1.792,7.794,7.794,0,0,1,1.677,2.822,11.244,11.244,0,0,1,.577,3.717,1.224,1.224,0,0,1-.425,1.017,1.984,1.984,0,0,1-1.259.34H89.659v-2.788h9.01l-.561.491a6.128,6.128,0,0,0-.427-2.452,3.213,3.213,0,0,0-1.233-1.481,3.685,3.685,0,0,0-2-.506,4.046,4.046,0,0,0-2.25.608,3.825,3.825,0,0,0-1.43,1.749,6.977,6.977,0,0,0-.493,2.771v.273a5.549,5.549,0,0,0,1.254,4.017,5.084,5.084,0,0,0,3.78,1.275,10.523,10.523,0,0,0,1.958-.21,8.438,8.438,0,0,0,2.077-.682,2.316,2.316,0,0,1,1.469-.258,1.658,1.658,0,0,1,.985.591,1.967,1.967,0,0,1,.411,1.067,2.11,2.11,0,0,1-.264,1.206,2.4,2.4,0,0,1-1.052.975,10.122,10.122,0,0,1-2.762,1.017A13.815,13.815,0,0,1,95.2-32Zm17.067,0a6.032,6.032,0,0,1-4.768-1.772,7.762,7.762,0,0,1-1.564-5.275V-55.177a2.748,2.748,0,0,1,.7-2.029,2.7,2.7,0,0,1,1.993-.7,2.74,2.74,0,0,1,2.005.7,2.72,2.72,0,0,1,.708,2.029v15.932a3.232,3.232,0,0,0,.613,2.174,2.105,2.105,0,0,0,1.666.7,4.08,4.08,0,0,0,.537-.035q.262-.035.534-.059a.769.769,0,0,1,.8.352,3.737,3.737,0,0,1,.235,1.641,2.66,2.66,0,0,1-.425,1.624,2.015,2.015,0,0,1-1.349.715l-.79.088A7.98,7.98,0,0,1,112.263-32ZM124-32a7.844,7.844,0,0,1-3.487-.744,5.919,5.919,0,0,1-2.381-2.024,5.089,5.089,0,0,1-.857-2.9,4.416,4.416,0,0,1,1-3.053,5.963,5.963,0,0,1,3.244-1.616,28.824,28.824,0,0,1,5.978-.5h1.878v2.788H127.51a16.529,16.529,0,0,0-2.931.209,3.207,3.207,0,0,0-1.609.672,1.642,1.642,0,0,0-.493,1.258,2.144,2.144,0,0,0,.705,1.657,2.864,2.864,0,0,0,2,.645,3.549,3.549,0,0,0,1.84-.476,3.544,3.544,0,0,0,1.286-1.313,3.811,3.811,0,0,0,.481-1.932v-4.125a2.885,2.885,0,0,0-.72-2.211,3.624,3.624,0,0,0-2.456-.658,10.882,10.882,0,0,0-2.09.222,13.162,13.162,0,0,0-2.466.775,2.06,2.06,0,0,1-1.417.139,1.656,1.656,0,0,1-.928-.713,2.08,2.08,0,0,1-.32-1.146,2.3,2.3,0,0,1,.37-1.212,2.215,2.215,0,0,1,1.178-.881,16.19,16.19,0,0,1,3.16-.915,16.09,16.09,0,0,1,2.722-.258,10.938,10.938,0,0,1,4.536.815,5.527,5.527,0,0,1,2.665,2.48,9.066,9.066,0,0,1,.884,4.269v7.924a2.935,2.935,0,0,1-.643,2.041,2.381,2.381,0,0,1-1.857.708,2.44,2.44,0,0,1-1.875-.708,2.882,2.882,0,0,1-.661-2.041V-36.14l.253.235a4.574,4.574,0,0,1-.911,2.069,4.677,4.677,0,0,1-1.764,1.357A5.9,5.9,0,0,1,124-32Zm22.744,0a10.512,10.512,0,0,1-4.978-1.121,7.9,7.9,0,0,1-3.282-3.2,9.89,9.89,0,0,1-1.159-4.893,10.412,10.412,0,0,1,.654-3.8,7.806,7.806,0,0,1,1.891-2.859,8.335,8.335,0,0,1,2.979-1.805,11.465,11.465,0,0,1,3.9-.626,11.517,11.517,0,0,1,2.373.266,9.541,9.541,0,0,1,2.476.905,1.946,1.946,0,0,1,.969.926,2.205,2.205,0,0,1,.184,1.21,2.329,2.329,0,0,1-.442,1.118,1.694,1.694,0,0,1-.936.644,1.818,1.818,0,0,1-1.294-.2A6.129,6.129,0,0,0,148.659-46a5.558,5.558,0,0,0-1.389-.188,4.91,4.91,0,0,0-1.884.336,3.739,3.739,0,0,0-1.38.967,4.2,4.2,0,0,0-.858,1.556,7.071,7.071,0,0,0-.294,2.139,5.552,5.552,0,0,0,1.152,3.719,4.054,4.054,0,0,0,3.264,1.352,5.963,5.963,0,0,0,1.377-.17,5.771,5.771,0,0,0,1.426-.556,1.74,1.74,0,0,1,1.281-.187,1.7,1.7,0,0,1,.911.656,2.209,2.209,0,0,1,.4,1.118,2.307,2.307,0,0,1-.221,1.21,1.909,1.909,0,0,1-.957.9,9.793,9.793,0,0,1-2.414.881A11,11,0,0,1,146.742-32Zm11.467-.072a2.669,2.669,0,0,1-1.993-.708,2.792,2.792,0,0,1-.7-2.041V-55.177a2.748,2.748,0,0,1,.7-2.029,2.7,2.7,0,0,1,1.993-.7,2.74,2.74,0,0,1,2.005.7,2.72,2.72,0,0,1,.708,2.029v8.547H160.4a5.925,5.925,0,0,1,2.45-2.728,7.235,7.235,0,0,1,3.695-.944,6.74,6.74,0,0,1,3.47.8,4.917,4.917,0,0,1,2.039,2.44,10.892,10.892,0,0,1,.68,4.148v8.1a2.792,2.792,0,0,1-.7,2.041,2.668,2.668,0,0,1-1.992.708,2.712,2.712,0,0,1-2.005-.708,2.763,2.763,0,0,1-.708-2.041v-7.859a4.18,4.18,0,0,0-.663-2.639,2.447,2.447,0,0,0-2.014-.812,3.558,3.558,0,0,0-2.715,1.077,4.01,4.01,0,0,0-1.017,2.87v7.363A2.414,2.414,0,0,1,158.209-32.067Z"
                transform="translate(63.041 69.736)"/>
        </g>
    </g>
</svg>
