<svg xmlns="http://www.w3.org/2000/svg" fill="currentColor" viewBox="0 0 208 25.518">
    <g transform="translate(-25 -25.481)">
        <g transform="translate(-1033.986 -83.519)">
            <path
                  d="M20.347,25.037a4.168,4.168,0,0,1-1.331-.229,4.216,4.216,0,0,1-.722-.315,3.95,3.95,0,0,1-.643-.447,5.012,5.012,0,0,1-.6-.605,8.036,8.036,0,0,1-.577-.788c-.145-.219-.423-.646-.744-1.139l0,0,0,0c-.268-.412-.572-.879-.853-1.309-.625-.964-1.127-1.731-1.143-1.747a.014.014,0,0,0-.01,0A9.453,9.453,0,0,0,12.656,20c-.959,1.478-1.616,2.487-1.99,3.041a4.49,4.49,0,0,1-.62.747,4.4,4.4,0,0,1-1.62.994A4.587,4.587,0,0,1,7.472,25a3.529,3.529,0,0,1-.441.028,3.475,3.475,0,0,1-1.045-.162A3.875,3.875,0,0,1,5,24.393a3.928,3.928,0,0,1-.7-.593,6.582,6.582,0,0,1-.667-.859c-.193-.291-.489-.811-.81-1.426s-.608-1.208-.8-1.647a21.361,21.361,0,0,1-.88-2.518c-.256-.9-.476-1.85-.654-2.83S.182,12.555.1,11.587A25.742,25.742,0,0,1,.007,8.759,17.811,17.811,0,0,1,.3,5.8,9.871,9.871,0,0,1,1.046,3.48a6.619,6.619,0,0,1,.51-.9,6.4,6.4,0,0,1,.632-.792,5.944,5.944,0,0,1,.733-.663A5.33,5.33,0,0,1,3.737.614,7.066,7.066,0,0,1,5.4.079,6.375,6.375,0,0,1,6.386.016,7.459,7.459,0,0,1,7.953.156,6.791,6.791,0,0,1,9.235.611a10.693,10.693,0,0,1,1.364.783c.47.315.867.621,2.958,2.326.3.247.786.637,1.255,1.014h0l.569.458.6.481.005,0,1.087.868c.479.381.807.636,1.064.814a4.272,4.272,0,0,0,.686.392,4.35,4.35,0,0,0,.807.3,4.269,4.269,0,0,0,.861.113c.069,0,.138.005.207.005a4.1,4.1,0,0,0,1.054-.137,3.649,3.649,0,0,0,.921-.382,2.871,2.871,0,0,0,.713-.587,2.153,2.153,0,0,0,.429-.75,2.345,2.345,0,0,0,.12-1.217,2.127,2.127,0,0,0-.21-.7,2.11,2.11,0,0,0-.468-.559,3.879,3.879,0,0,0-2.6-1,2.941,2.941,0,0,0-1.532.392,5.563,5.563,0,0,0-1.454,1.333c-.334.4-.442.521-.514.521a.082.082,0,0,1-.05-.019c-.039-.027-.294-.23-.648-.512l-.02-.016L16,4.179a4.721,4.721,0,0,1-.979-.873A11.981,11.981,0,0,1,16.5,1.667a8.73,8.73,0,0,1,.768-.627,5.7,5.7,0,0,1,.742-.459,6.592,6.592,0,0,1,.8-.317,5.326,5.326,0,0,1,.8-.207A7.413,7.413,0,0,1,20.624,0a8.285,8.285,0,0,1,1.055.057,6.4,6.4,0,0,1,4.67,3.155,4.982,4.982,0,0,1,.42,1.453A5.186,5.186,0,0,1,26.786,6.2a6.174,6.174,0,0,1-.237.994,5.371,5.371,0,0,1-.381.879,5.3,5.3,0,0,1-1.023,1.273,6.019,6.019,0,0,1-1.4.982,6.579,6.579,0,0,1-.927.361,7.324,7.324,0,0,1-1.009.25,6.866,6.866,0,0,1-1.079.072,7.943,7.943,0,0,1-1.491-.121,7.973,7.973,0,0,1-1.289-.408,7.877,7.877,0,0,1-1.2-.613c-.569-.358-3.985-3.063-5.993-4.744A15.476,15.476,0,0,0,8.279,3.337a3.685,3.685,0,0,0-1.8-.5,3.391,3.391,0,0,0-.744.091,3.2,3.2,0,0,0-.7.242,2.6,2.6,0,0,0-.75.559,3.7,3.7,0,0,0-.6.874,6.554,6.554,0,0,0-.448,1.2,12.17,12.17,0,0,0-.307,1.538c-.041.3-.066,1.049-.065,1.947S2.9,11,2.938,11.406a23.169,23.169,0,0,0,2.45,8.843A12.526,12.526,0,0,0,6.059,21.4,2.636,2.636,0,0,0,6.569,22a.713.713,0,0,0,.509.158c.567,0,.884-.216,1.356-.923.534-.8,1.406-2.146,2.275-3.5A12.578,12.578,0,0,1,11.8,16.21a2.8,2.8,0,0,1,1.92-.792,2.324,2.324,0,0,1,.322.022,2.919,2.919,0,0,1,.859.278,2.642,2.642,0,0,1,.716.5,20.112,20.112,0,0,1,1.2,1.709c.228.355.5.775.766,1.182.321.494.624.961.825,1.275.376.574.761,1.142.859,1.266a1.4,1.4,0,0,0,.494.372,1.418,1.418,0,0,0,.581.137.8.8,0,0,0,.363-.078c.372-.191.8-.825,1.493-2.189A19.226,19.226,0,0,0,23.384,17a18.633,18.633,0,0,0,.585-2.3,9.115,9.115,0,0,1,.35-1.316,1.279,1.279,0,0,1,.52-.534,1.49,1.49,0,0,1,.731-.191,1.379,1.379,0,0,1,.7.184,1.6,1.6,0,0,1,.689.933,2.1,2.1,0,0,1-.087,1.01,22.545,22.545,0,0,1-2.16,6.491,17.27,17.27,0,0,1-.856,1.54,6.146,6.146,0,0,1-.762.971,4.117,4.117,0,0,1-1.283.931,3.521,3.521,0,0,1-1.459.313h0ZM10.528,13.672h0a1.217,1.217,0,0,1-.481-.093,1.514,1.514,0,0,1-.874-1.356,1.25,1.25,0,0,1,.109-.522c.037-.081.2-.349.478-.773.246-.379.567-.862.9-1.361.608-.9,1.28-1.872,1.32-1.872a12.954,12.954,0,0,1,1.121.852,11.266,11.266,0,0,1,1.05.9c0,.056-.664,1.056-1.281,1.961s-1.314,1.9-1.388,1.953a1.733,1.733,0,0,1-.466.232A1.6,1.6,0,0,1,10.528,13.672Z"
                  transform="translate(1058.986 109)"/>
            <path
                d="M8.622-44.886a1.515,1.515,0,0,1-.953-.281,1.906,1.906,0,0,1-.582-.884L3.356-56.521a1.271,1.271,0,0,1,.095-1.2,1.341,1.341,0,0,1,1.183-.493,1.4,1.4,0,0,1,.926.277,1.873,1.873,0,0,1,.524.868l3.039,9.066h-.8l3.216-9.059a2.065,2.065,0,0,1,.548-.871,1.269,1.269,0,0,1,.853-.281,1.219,1.219,0,0,1,.84.281,2.056,2.056,0,0,1,.524.89l3.071,9.04h-.686l3.1-9.066a1.932,1.932,0,0,1,.521-.861,1.333,1.333,0,0,1,.9-.283,1.181,1.181,0,0,1,1.056.493,1.285,1.285,0,0,1,.077,1.2L18.589-46.032a1.908,1.908,0,0,1-.567.865,1.485,1.485,0,0,1-.95.281,1.488,1.488,0,0,1-.947-.281,1.9,1.9,0,0,1-.57-.884L12.644-54.3h.442l-2.96,8.267a1.988,1.988,0,0,1-.563.865A1.446,1.446,0,0,1,8.622-44.886Zm17.7-.013a1.317,1.317,0,0,1-1.028-.4,1.608,1.608,0,0,1-.359-1.12v-6.318a1.6,1.6,0,0,1,.359-1.126,1.329,1.329,0,0,1,1.028-.39,1.35,1.35,0,0,1,1.035.39,1.586,1.586,0,0,1,.365,1.126v6.318a1.617,1.617,0,0,1-.356,1.12A1.332,1.332,0,0,1,26.327-44.9Zm0-10.864a1.721,1.721,0,0,1-1.177-.366,1.3,1.3,0,0,1-.415-1.031A1.3,1.3,0,0,1,25.15-58.2a1.741,1.741,0,0,1,1.177-.36,1.736,1.736,0,0,1,1.183.36,1.31,1.31,0,0,1,.409,1.038,1.313,1.313,0,0,1-.409,1.031A1.716,1.716,0,0,1,26.327-55.762Zm7.82,10.913a4.847,4.847,0,0,1-2.139-.418A2.712,2.712,0,0,1,30.742-46.5a4.516,4.516,0,0,1-.414-2.046v-3.481h-.792a1.113,1.113,0,0,1-.8-.271,1.008,1.008,0,0,1-.283-.764,1,1,0,0,1,.283-.77,1.129,1.129,0,0,1,.8-.265h.792v-1.42a1.4,1.4,0,0,1,.365-1.047,1.414,1.414,0,0,1,1.035-.359,1.392,1.392,0,0,1,1.028.359,1.418,1.418,0,0,1,.359,1.047v1.42h1.737a1.128,1.128,0,0,1,.8.265,1.009,1.009,0,0,1,.281.77,1.013,1.013,0,0,1-.281.764,1.111,1.111,0,0,1-.8.271H33.116v3.364a1.67,1.67,0,0,0,.356,1.167,1.49,1.49,0,0,0,1.142.385,2.335,2.335,0,0,0,.525-.055,2.746,2.746,0,0,1,.436-.068.506.506,0,0,1,.424.159,1.165,1.165,0,0,1,.168.755,1.983,1.983,0,0,1-.143.788.859.859,0,0,1-.515.472,4.113,4.113,0,0,1-.665.15A4.65,4.65,0,0,1,34.147-44.849Zm7.862,0a4.847,4.847,0,0,1-2.139-.418A2.712,2.712,0,0,1,38.6-46.5a4.516,4.516,0,0,1-.414-2.046v-3.481H37.4a1.113,1.113,0,0,1-.8-.271,1.008,1.008,0,0,1-.283-.764,1,1,0,0,1,.283-.77,1.129,1.129,0,0,1,.8-.265h.792v-1.42a1.4,1.4,0,0,1,.365-1.047,1.414,1.414,0,0,1,1.035-.359,1.392,1.392,0,0,1,1.028.359,1.418,1.418,0,0,1,.359,1.047v1.42h1.737a1.128,1.128,0,0,1,.8.265,1.009,1.009,0,0,1,.281.77,1.013,1.013,0,0,1-.281.764,1.111,1.111,0,0,1-.8.271H40.978v3.364a1.67,1.67,0,0,0,.356,1.167,1.49,1.49,0,0,0,1.142.385A2.335,2.335,0,0,0,43-47.17a2.746,2.746,0,0,1,.436-.068.506.506,0,0,1,.424.159,1.165,1.165,0,0,1,.168.755,1.983,1.983,0,0,1-.143.788.859.859,0,0,1-.515.472,4.113,4.113,0,0,1-.665.15A4.65,4.65,0,0,1,42.009-44.849Zm8.693,0a6.094,6.094,0,0,1-2.752-.578,4.173,4.173,0,0,1-1.78-1.639,4.86,4.86,0,0,1-.623-2.507,4.91,4.91,0,0,1,.6-2.461A4.347,4.347,0,0,1,47.8-53.694a4.742,4.742,0,0,1,2.4-.6,4.708,4.708,0,0,1,1.784.322,3.82,3.82,0,0,1,1.363.925,4.022,4.022,0,0,1,.865,1.457,5.8,5.8,0,0,1,.3,1.918.632.632,0,0,1-.219.525,1.024,1.024,0,0,1-.65.175H47.845v-1.439h4.65l-.29.254a3.163,3.163,0,0,0-.22-1.265,1.658,1.658,0,0,0-.636-.764,1.9,1.9,0,0,0-1.03-.261,2.088,2.088,0,0,0-1.161.314,1.974,1.974,0,0,0-.738.9,3.6,3.6,0,0,0-.254,1.43v.141a2.863,2.863,0,0,0,.647,2.073,2.624,2.624,0,0,0,1.951.658,5.431,5.431,0,0,0,1.011-.108,4.355,4.355,0,0,0,1.072-.352,1.2,1.2,0,0,1,.758-.133.856.856,0,0,1,.508.3,1.015,1.015,0,0,1,.212.55,1.089,1.089,0,0,1-.136.623,1.241,1.241,0,0,1-.543.5,5.224,5.224,0,0,1-1.425.525A7.13,7.13,0,0,1,50.7-44.849Zm8.808,0a3.113,3.113,0,0,1-2.461-.914,4.006,4.006,0,0,1-.807-2.722v-8.327A1.418,1.418,0,0,1,56.6-57.86a1.392,1.392,0,0,1,1.028-.359,1.414,1.414,0,0,1,1.035.359,1.4,1.4,0,0,1,.365,1.047v8.222a1.668,1.668,0,0,0,.317,1.122,1.087,1.087,0,0,0,.86.36,2.106,2.106,0,0,0,.277-.018q.135-.018.276-.031a.4.4,0,0,1,.414.182,1.928,1.928,0,0,1,.121.847,1.373,1.373,0,0,1-.219.838,1.04,1.04,0,0,1-.7.369l-.408.046A4.118,4.118,0,0,1,59.51-44.849Zm6.056,0a4.048,4.048,0,0,1-1.8-.384,3.054,3.054,0,0,1-1.229-1.045,2.626,2.626,0,0,1-.442-1.5,2.279,2.279,0,0,1,.517-1.575,3.077,3.077,0,0,1,1.674-.834,14.875,14.875,0,0,1,3.085-.256h.969V-49h-.962a8.53,8.53,0,0,0-1.513.108,1.655,1.655,0,0,0-.83.347.847.847,0,0,0-.254.649,1.107,1.107,0,0,0,.364.855,1.478,1.478,0,0,0,1.034.333,1.832,1.832,0,0,0,.95-.246,1.829,1.829,0,0,0,.664-.678,1.967,1.967,0,0,0,.248-1v-2.129A1.489,1.489,0,0,0,67.67-51.9a1.87,1.87,0,0,0-1.268-.34,5.616,5.616,0,0,0-1.079.115,6.793,6.793,0,0,0-1.272.4,1.063,1.063,0,0,1-.731.072.855.855,0,0,1-.479-.368,1.073,1.073,0,0,1-.165-.591,1.189,1.189,0,0,1,.191-.625,1.143,1.143,0,0,1,.608-.455,8.356,8.356,0,0,1,1.631-.472,8.3,8.3,0,0,1,1.4-.133,5.645,5.645,0,0,1,2.341.421,2.852,2.852,0,0,1,1.375,1.28,4.679,4.679,0,0,1,.456,2.2V-46.3a1.515,1.515,0,0,1-.332,1.053,1.229,1.229,0,0,1-.958.365,1.259,1.259,0,0,1-.968-.365,1.488,1.488,0,0,1-.341-1.053v-.684l.13.121a2.36,2.36,0,0,1-.47,1.068,2.414,2.414,0,0,1-.91.7A3.044,3.044,0,0,1,65.566-44.849Zm11.738,0a5.425,5.425,0,0,1-2.569-.579,4.079,4.079,0,0,1-1.694-1.652,5.1,5.1,0,0,1-.6-2.525,5.373,5.373,0,0,1,.338-1.962,4.029,4.029,0,0,1,.976-1.476,4.3,4.3,0,0,1,1.538-.932A5.917,5.917,0,0,1,77.3-54.3a5.944,5.944,0,0,1,1.225.137,4.924,4.924,0,0,1,1.278.467,1,1,0,0,1,.5.478,1.138,1.138,0,0,1,.095.624,1.2,1.2,0,0,1-.228.577.874.874,0,0,1-.483.333.938.938,0,0,1-.668-.1,3.163,3.163,0,0,0-.73-.291,2.869,2.869,0,0,0-.717-.1A2.534,2.534,0,0,0,76.6-52a1.929,1.929,0,0,0-.712.5,2.168,2.168,0,0,0-.443.8,3.65,3.65,0,0,0-.152,1.1,2.865,2.865,0,0,0,.595,1.919,2.092,2.092,0,0,0,1.685.7,3.077,3.077,0,0,0,.711-.088,2.978,2.978,0,0,0,.736-.287.9.9,0,0,1,.661-.1.876.876,0,0,1,.47.339,1.14,1.14,0,0,1,.209.577,1.191,1.191,0,0,1-.114.624.985.985,0,0,1-.494.465,5.054,5.054,0,0,1-1.246.454A5.678,5.678,0,0,1,77.3-44.849Zm5.918-.037a1.377,1.377,0,0,1-1.028-.365,1.441,1.441,0,0,1-.359-1.053V-56.813a1.418,1.418,0,0,1,.359-1.047,1.392,1.392,0,0,1,1.028-.359,1.414,1.414,0,0,1,1.035.359,1.4,1.4,0,0,1,.365,1.047V-52.4h-.27a3.058,3.058,0,0,1,1.265-1.408,3.734,3.734,0,0,1,1.907-.487,3.478,3.478,0,0,1,1.791.415,2.538,2.538,0,0,1,1.052,1.259,5.621,5.621,0,0,1,.351,2.141V-46.3a1.441,1.441,0,0,1-.359,1.053,1.377,1.377,0,0,1-1.028.365,1.4,1.4,0,0,1-1.035-.365A1.426,1.426,0,0,1,87.93-46.3V-50.36a2.157,2.157,0,0,0-.342-1.362,1.263,1.263,0,0,0-1.04-.419,1.836,1.836,0,0,0-1.4.556,2.069,2.069,0,0,0-.525,1.481v3.8A1.246,1.246,0,0,1,83.222-44.886Z"
                  transform="translate(1089.948 173.326)" />
        </g>
        <g transform="translate(-12.162 2.481)">
            <rect  width="78" height="24" rx="12"
                  transform="translate(167.162 24.518)" class="label-logo"/>
            <path
                  d="M3.929-.99V-2.355a2.91,2.91,0,0,0,1.165-.232,2.915,2.915,0,0,0,.943-.648,2.982,2.982,0,0,0,.63-.97,3.151,3.151,0,0,0,.225-1.2,3.151,3.151,0,0,0-.225-1.2,2.982,2.982,0,0,0-.63-.97,2.915,2.915,0,0,0-.943-.648,2.91,2.91,0,0,0-1.165-.232V-9.813a4.638,4.638,0,0,1,2.31.564A4.082,4.082,0,0,1,7.812-7.691,4.527,4.527,0,0,1,8.381-5.4a4.508,4.508,0,0,1-.57,2.281A4.114,4.114,0,0,1,6.238-1.557,4.609,4.609,0,0,1,3.929-.99ZM2.1-.99V-2.355H3.929V-.99Zm-.942,0V-9.813H2.622V-.99ZM2.1-8.448V-9.813H3.929v1.365ZM13.542-.99,13.48-4.232A3.7,3.7,0,0,0,13.335-5.3a1.3,1.3,0,0,0-.428-.657,1.232,1.232,0,0,0-.773-.224A1.609,1.609,0,0,0,11.352-6a1.479,1.479,0,0,0-.569.583L9.524-5.859a3.162,3.162,0,0,1,.546-.779,2.531,2.531,0,0,1,.861-.583,3.119,3.119,0,0,1,1.23-.222,3.094,3.094,0,0,1,1.526.34A2.133,2.133,0,0,1,14.6-6.1a3.959,3.959,0,0,1,.3,1.646V-.99Zm-1.787.151A2.711,2.711,0,0,1,10-1.344,1.728,1.728,0,0,1,9.38-2.767a1.782,1.782,0,0,1,.66-1.5,2.956,2.956,0,0,1,1.851-.512h1.972L13.881-3.7H12.335a2.178,2.178,0,0,0-1.183.235.756.756,0,0,0-.338.659.655.655,0,0,0,.3.569,1.44,1.44,0,0,0,.829.206,1.486,1.486,0,0,0,.809-.217,1.515,1.515,0,0,0,.537-.576,1.616,1.616,0,0,0,.193-.776H14a3.312,3.312,0,0,1-.55,2.022A1.983,1.983,0,0,1,11.755-.838Zm6.876,0a3.373,3.373,0,0,1-1.163-.192,2.715,2.715,0,0,1-.906-.537,2.3,2.3,0,0,1-.578-.81L17.2-2.918a1.666,1.666,0,0,0,.565.574,1.516,1.516,0,0,0,.83.234,1.619,1.619,0,0,0,.773-.16.5.5,0,0,0,.295-.456.517.517,0,0,0-.227-.45,1.968,1.968,0,0,0-.633-.263l-.59-.155a3.064,3.064,0,0,1-1.4-.734,1.558,1.558,0,0,1-.505-1.14,1.8,1.8,0,0,1,.614-1.459,2.67,2.67,0,0,1,1.765-.517,3.211,3.211,0,0,1,1.067.171,2.5,2.5,0,0,1,.839.479,1.681,1.681,0,0,1,.492.72L19.9-5.539a.854.854,0,0,0-.475-.481,1.857,1.857,0,0,0-.777-.161,1.086,1.086,0,0,0-.664.18.587.587,0,0,0-.24.5.433.433,0,0,0,.214.349,1.831,1.831,0,0,0,.615.254l.741.184a2.544,2.544,0,0,1,1.012.471,2.065,2.065,0,0,1,.582.717,1.858,1.858,0,0,1,.188.8,1.61,1.61,0,0,1-.322.995,2.068,2.068,0,0,1-.874.66A3.243,3.243,0,0,1,18.631-.838ZM22.219-.99l-.011-8.938h1.407L23.626-.99Zm4.276,0V-4.216L27.9-4.595v3.6Zm0-3.227a3.049,3.049,0,0,0-.175-1.163,1.119,1.119,0,0,0-.484-.575,1.528,1.528,0,0,0-.713-.171,1.317,1.317,0,0,0-1.106.469,2.135,2.135,0,0,0-.39,1.378h-.531a4.486,4.486,0,0,1,.292-1.71A2.364,2.364,0,0,1,24.22-7.07,2.205,2.205,0,0,1,25.5-7.443a2.265,2.265,0,0,1,1.775.7A3.111,3.111,0,0,1,27.9-4.595ZM29.332-.99V-9.813h1.407v7.651L30.669-.99Zm3.4.151a2.277,2.277,0,0,1-1.36-.409A2.561,2.561,0,0,1,30.495-2.4a4.6,4.6,0,0,1-.3-1.738,4.588,4.588,0,0,1,.3-1.744,2.564,2.564,0,0,1,.875-1.15,2.277,2.277,0,0,1,1.36-.409,2.725,2.725,0,0,1,1.5.409,2.72,2.72,0,0,1,.995,1.15,4,4,0,0,1,.355,1.744A4.011,4.011,0,0,1,35.224-2.4a2.713,2.713,0,0,1-.995,1.156A2.725,2.725,0,0,1,32.73-.838Zm-.346-1.288a1.593,1.593,0,0,0,.9-.258A1.8,1.8,0,0,0,33.9-3.1a2.3,2.3,0,0,0,.228-1.044,2.362,2.362,0,0,0-.22-1.044,1.726,1.726,0,0,0-.612-.71,1.609,1.609,0,0,0-.9-.256,1.491,1.491,0,0,0-.859.256,1.7,1.7,0,0,0-.587.71,2.453,2.453,0,0,0-.211,1.044A2.465,2.465,0,0,0,30.95-3.1a1.722,1.722,0,0,0,.581.712A1.461,1.461,0,0,0,32.383-2.126ZM39.777-.838a3.339,3.339,0,0,1-1.691-.422,3.031,3.031,0,0,1-1.154-1.166,3.44,3.44,0,0,1-.418-1.714,3.483,3.483,0,0,1,.411-1.714,2.985,2.985,0,0,1,1.148-1.166,3.314,3.314,0,0,1,1.679-.422,3.324,3.324,0,0,1,1.693.422,3.009,3.009,0,0,1,1.144,1.166A3.47,3.47,0,0,1,43-4.141a3.47,3.47,0,0,1-.413,1.714,3.022,3.022,0,0,1-1.138,1.166A3.264,3.264,0,0,1,39.777-.838Zm0-1.362a1.614,1.614,0,0,0,.9-.248,1.717,1.717,0,0,0,.605-.684,2.2,2.2,0,0,0,.22-1.007,2.182,2.182,0,0,0-.224-1.009,1.716,1.716,0,0,0-.618-.685,1.652,1.652,0,0,0-.9-.248,1.629,1.629,0,0,0-.9.248,1.7,1.7,0,0,0-.61.684,2.2,2.2,0,0,0-.22,1.007,2.2,2.2,0,0,0,.221,1.009,1.689,1.689,0,0,0,.618.685A1.675,1.675,0,0,0,39.776-2.2Zm8.4,1.21L48.11-4.232A3.7,3.7,0,0,0,47.965-5.3a1.3,1.3,0,0,0-.428-.657,1.232,1.232,0,0,0-.773-.224A1.609,1.609,0,0,0,45.982-6a1.479,1.479,0,0,0-.569.583l-1.259-.447a3.162,3.162,0,0,1,.546-.779,2.531,2.531,0,0,1,.861-.583,3.119,3.119,0,0,1,1.23-.222,3.094,3.094,0,0,1,1.526.34A2.133,2.133,0,0,1,49.23-6.1a3.959,3.959,0,0,1,.3,1.646V-.99Zm-1.787.151a2.711,2.711,0,0,1-1.751-.506,1.728,1.728,0,0,1-.624-1.423,1.782,1.782,0,0,1,.66-1.5,2.956,2.956,0,0,1,1.851-.512h1.972L48.511-3.7H46.965a2.178,2.178,0,0,0-1.183.235.756.756,0,0,0-.338.659.655.655,0,0,0,.3.569,1.44,1.44,0,0,0,.829.206,1.487,1.487,0,0,0,.809-.217,1.515,1.515,0,0,0,.537-.576,1.616,1.616,0,0,0,.193-.776h.527a3.312,3.312,0,0,1-.55,2.022A1.983,1.983,0,0,1,46.386-.838Zm5.507-3.5a3.216,3.216,0,0,1,.4-1.678A2.543,2.543,0,0,1,53.3-7a2.791,2.791,0,0,1,1.3-.321v1.349a3.649,3.649,0,0,0-1.081.157,1.807,1.807,0,0,0-.83.512,1.346,1.346,0,0,0-.32.937ZM50.965-.99v-6.3h1.407v6.3Zm9.127,0-.07-1.172V-9.813h1.407V-.99Zm-2.056.151a2.725,2.725,0,0,1-1.5-.409A2.713,2.713,0,0,1,55.543-2.4a4.011,4.011,0,0,1-.355-1.738,4,4,0,0,1,.355-1.744,2.72,2.72,0,0,1,.995-1.15,2.725,2.725,0,0,1,1.5-.409,2.273,2.273,0,0,1,1.364.409,2.575,2.575,0,0,1,.871,1.15,4.588,4.588,0,0,1,.3,1.744,4.6,4.6,0,0,1-.3,1.738A2.571,2.571,0,0,1,59.4-1.247,2.273,2.273,0,0,1,58.037-.838Zm.346-1.288a1.456,1.456,0,0,0,.852-.258,1.731,1.731,0,0,0,.582-.712,2.458,2.458,0,0,0,.21-1.044,2.458,2.458,0,0,0-.21-1.044,1.711,1.711,0,0,0-.582-.71,1.488,1.488,0,0,0-.864-.255,1.6,1.6,0,0,0-.894.255,1.733,1.733,0,0,0-.612.71,2.406,2.406,0,0,0-.227,1.044,2.373,2.373,0,0,0,.23,1.044,1.772,1.772,0,0,0,.618.712A1.6,1.6,0,0,0,58.383-2.126Z"
                  transform="translate(174.987 42.195)"/>
        </g>
    </g>
</svg>
