<svg xmlns="http://www.w3.org/2000/svg" fill="currentColor" viewBox="0 0 10.582 10.997">
    <g transform="translate(-0.362 -290.901)">
        <path d="M5.4,290.9a3.153,3.153,0,0,0-1.816,5.735A5.129,5.129,0,0,0,.362,301.39a.5.5,0,1,0,1,0,4.123,4.123,0,0,1,6.293-3.508.5.5,0,1,0,.521-.849,5.119,5.119,0,0,0-.908-.431A3.154,3.154,0,0,0,5.4,290.9Zm0,1a2.162,2.162,0,1,1-2.164,2.164A2.155,2.155,0,0,1,5.4,291.9Zm3.053,8.468v1a.5.5,0,0,0,1,0v-1h1a.5.5,0,0,0,0-1h-1v-1a.5.5,0,1,0-1,0v1H7.435a.5.5,0,1,0,.024,1Z" transform="translate(0 0)" />
    </g>
</svg>
