<svg xmlns="http://www.w3.org/2000/svg" width="25" height="25" viewBox="0 0 25 25" fill="currentColor">
    <path d="M12.5,25A12.5,12.5,0,1,1,25,12.5,12.514,12.514,0,0,1,12.5,25Zm0-23.437A10.938,10.938,0,1,0,23.438,12.5,10.95,10.95,0,0,0,12.5,1.563Zm0,0"/>
    <path d="M142.244,241.9H128.95a.95.95,0,1,1,0-1.9h13.294a.95.95,0,1,1,0,1.9Zm0,0" transform="translate(-123.097 -228.45)"/>
    <path d="M240.95,143.194a.95.95,0,0,1-.95-.95V128.95a.95.95,0,1,1,1.9,0v13.294A.95.95,0,0,1,240.95,143.194Zm0,0" transform="translate(-228.45 -123.097)"/>
</svg>
