<svg xmlns="http://www.w3.org/2000/svg" fill="currentColor" viewBox="0 0 31.029 40.736">
    <g id="document" transform="translate(-61)">
        <path
            d="M90.661,8.455,82.989,1.2A4.359,4.359,0,0,0,79.982,0H65.376A4.381,4.381,0,0,0,61,4.376V36.36a4.381,4.381,0,0,0,4.376,4.376H87.653a4.381,4.381,0,0,0,4.376-4.376V11.634A4.394,4.394,0,0,0,90.661,8.455ZM88.342,9.547H82.4a.4.4,0,0,1-.4-.4v-5.6Zm-.689,28.8H65.376a1.991,1.991,0,0,1-1.989-1.989V4.376a1.991,1.991,0,0,1,1.989-1.989H79.618V9.15A2.788,2.788,0,0,0,82.4,11.934h7.24V36.36A1.991,1.991,0,0,1,87.653,38.349Z"
        />
        <path
            d="M146.7,200h-17.5a1.193,1.193,0,0,0,0,2.387h17.5a1.193,1.193,0,0,0,0-2.387Z"
            transform="translate(-61.669 -184.088)"/>
        <path
            d="M146.7,280h-17.5a1.193,1.193,0,1,0,0,2.387h17.5a1.193,1.193,0,1,0,0-2.387Z"
            transform="translate(-61.669 -257.723)"/>
        <path
            d="M134.979,360h-5.786a1.193,1.193,0,1,0,0,2.387h5.786a1.193,1.193,0,1,0,0-2.387Z"
            transform="translate(-61.669 -331.358)"/>
    </g>
</svg>
