<svg xmlns="http://www.w3.org/2000/svg" fill="currentColor" viewBox="0 0 16.648 16.648">
    <g>
        <g>
            <path id="Path_202"
                  d="M8.324,0a8.324,8.324,0,1,0,8.324,8.324A8.319,8.319,0,0,0,8.324,0Zm0,15.487a7.163,7.163,0,1,1,7.163-7.163A7.171,7.171,0,0,1,8.324,15.487Z"
            />
        </g>
    </g>
    <g transform="translate(7.245 10.533)">
        <g>
            <path d="M223.648,323.924a.844.844,0,0,0,0,1.687.844.844,0,0,0,0-1.687Z"
                  transform="translate(-222.815 -323.924)"/>
        </g>
    </g>
    <g transform="translate(6.062 4.145)">
        <g>
            <path
                d="M188.58,127.469c-1.479,0-2.159.877-2.159,1.468a.628.628,0,0,0,.657.625c.592,0,.351-.844,1.468-.844.548,0,.986.241.986.745,0,.592-.614.931-.975,1.238a2.006,2.006,0,0,0-.734,1.665c0,.57.153.734.6.734.537,0,.646-.241.646-.449a1.376,1.376,0,0,1,.614-1.37,2.8,2.8,0,0,0,1.227-2.005C190.913,128.247,189.982,127.469,188.58,127.469Z"
                transform="translate(-186.421 -127.469)"/>
        </g>
    </g>
</svg>
