<svg xmlns="http://www.w3.org/2000/svg" fill="currentColor"
     viewBox="0 0 16.018 11.263">
    <g>
        <path
              d="M14.61,76H1.408A1.41,1.41,0,0,0,0,77.408v8.447a1.41,1.41,0,0,0,1.408,1.408h13.2a1.409,1.409,0,0,0,1.408-1.408V77.408A1.409,1.409,0,0,0,14.61,76Zm-.2.939L9,82.319a1.408,1.408,0,0,1-1.992,0L1.6,76.939ZM.939,85.664V77.6l4.056,4.034Zm.667.66L5.66,82.3l.69.686a2.346,2.346,0,0,0,3.317,0l.691-.687,4.054,4.028Zm13.474-.66-4.056-4.03L15.079,77.6Z"
              transform="translate(0 -76)" />
    </g>
</svg>
