<svg xmlns="http://www.w3.org/2000/svg" fill="currentColor" viewBox="0 0 13.558 13.609">
    <g transform="translate(0 0)">
        <path
            d="M3.558,8.714a13.908,13.908,0,0,0,4.626,3.624,7.2,7.2,0,0,0,2.589.766c.062,0,.122.005.185.005a2.144,2.144,0,0,0,1.662-.714.059.059,0,0,0,.011-.014,7,7,0,0,1,.524-.543c.128-.122.258-.25.383-.38A1.312,1.312,0,0,0,13.533,9.5L11.9,7.872a1.321,1.321,0,0,0-.956-.44,1.366,1.366,0,0,0-.967.437L9,8.842c-.09-.052-.182-.1-.269-.141a3.359,3.359,0,0,1-.3-.163A10.292,10.292,0,0,1,5.978,6.3a5.927,5.927,0,0,1-.831-1.326c.255-.231.494-.473.725-.709.081-.084.166-.168.25-.253a1.393,1.393,0,0,0,.451-.978,1.382,1.382,0,0,0-.451-.978l-.809-.809c-.1-.1-.185-.187-.277-.283C4.857.78,4.669.589,4.484.418A1.354,1.354,0,0,0,3.528,0a1.394,1.394,0,0,0-.967.421L1.545,1.437A2.087,2.087,0,0,0,.923,2.773,5.027,5.027,0,0,0,1.3,4.947,12.643,12.643,0,0,0,3.558,8.714ZM1.586,2.83a1.437,1.437,0,0,1,.432-.924L3.028.9a.732.732,0,0,1,.5-.231A.694.694,0,0,1,4.017.9c.182.168.353.345.538.532l.283.288.809.809A.738.738,0,0,1,5.9,3.04a.738.738,0,0,1-.255.508L5.394,3.8c-.253.255-.489.5-.75.728l-.014.014a.531.531,0,0,0-.136.6l.008.022A6.393,6.393,0,0,0,5.457,6.72,10.862,10.862,0,0,0,8.075,9.105a3.888,3.888,0,0,0,.359.2,3.359,3.359,0,0,1,.3.163l.03.016a.568.568,0,0,0,.263.068.576.576,0,0,0,.4-.185l1.016-1.016a.719.719,0,0,1,.5-.242.682.682,0,0,1,.481.242l1.638,1.635a.655.655,0,0,1-.008,1.024c-.114.122-.234.239-.361.361a7.823,7.823,0,0,0-.568.589,1.491,1.491,0,0,1-1.165.494c-.046,0-.1,0-.141-.005a6.541,6.541,0,0,1-2.342-.7,13.212,13.212,0,0,1-4.4-3.45A12.1,12.1,0,0,1,1.928,4.724,4.381,4.381,0,0,1,1.586,2.83Z"
            transform="translate(-0.662 0.25)"/>
        <path
            d="M10.958,13.359c-.065,0-.128,0-.188-.005h-.013a7.465,7.465,0,0,1-2.68-.79A14.163,14.163,0,0,1,3.366,8.875a12.882,12.882,0,0,1-2.3-3.842A5.265,5.265,0,0,1,.674,2.754,2.335,2.335,0,0,1,1.368,1.26L2.389.24a1.645,1.645,0,0,1,1.14-.49A1.6,1.6,0,0,1,4.657.237c.191.177.381.37.558.553L5.222.8c.089.092.176.181.268.273L6.3,1.88a1.622,1.622,0,0,1,.524,1.155A1.633,1.633,0,0,1,6.3,4.189c-.083.083-.166.166-.247.25-.189.194-.389.4-.6.6a6.065,6.065,0,0,0,.724,1.11,10.037,10.037,0,0,0,2.4,2.182c.082.052.178.1.277.15l.112.056L9.8,7.693a1.61,1.61,0,0,1,1.144-.511A1.564,1.564,0,0,1,12.08,7.7l1.629,1.629a1.563,1.563,0,0,1,.009,2.3c-.11.115-.234.238-.391.388l-.037.036a6.4,6.4,0,0,0-.459.476.311.311,0,0,1-.031.037A2.382,2.382,0,0,1,10.958,13.359Zm-.171-.505h0c.058,0,.112,0,.166,0a1.882,1.882,0,0,0,1.471-.625l.01-.012a6.629,6.629,0,0,1,.5-.526l.038-.037c.152-.146.272-.264.377-.374a1.066,1.066,0,0,0,0-1.6L11.723,8.049a1.081,1.081,0,0,0-.779-.367,1.122,1.122,0,0,0-.79.364L9.046,9.154l-.166-.1c-.083-.048-.171-.092-.256-.134A3.61,3.61,0,0,1,8.3,8.749,10.534,10.534,0,0,1,5.785,6.457a6.146,6.146,0,0,1-.867-1.384l-.071-.164.133-.12c.253-.229.491-.47.714-.7.082-.084.167-.17.252-.255a1.147,1.147,0,0,0,.378-.8,1.137,1.137,0,0,0-.377-.8l-.81-.81c-.094-.094-.182-.185-.273-.278l-.007-.007C4.683.96,4.5.771,4.314.6L4.309.6A1.1,1.1,0,0,0,3.528.25,1.14,1.14,0,0,0,2.736.6L1.722,1.614a1.846,1.846,0,0,0-.55,1.181A4.792,4.792,0,0,0,1.535,4.86,12.4,12.4,0,0,0,3.75,8.554a13.663,13.663,0,0,0,4.543,3.559A7,7,0,0,0,10.787,12.854Zm.174-.152c-.052,0-.1,0-.156-.006a6.775,6.775,0,0,1-2.434-.725A13.459,13.459,0,0,1,3.882,8.456,12.341,12.341,0,0,1,1.694,4.811a4.617,4.617,0,0,1-.357-2,1.683,1.683,0,0,1,.5-1.081L2.852.72a.977.977,0,0,1,.677-.3.937.937,0,0,1,.663.307c.16.149.31.3.469.462l.073.074.141.144.142.145.807.807a.973.973,0,0,1,.329.685.973.973,0,0,1-.329.685L5.7,3.85l-.128.13-.056.057c-.233.236-.454.459-.7.676l-.009.008a.285.285,0,0,0-.075.347l0,.011a6.169,6.169,0,0,0,.916,1.486,10.607,10.607,0,0,0,2.557,2.33,2.942,2.942,0,0,0,.278.153l.061.031c.1.051.211.106.31.169l.014.008.005,0a.323.323,0,0,0,.149.04.327.327,0,0,0,.228-.111L10.27,8.171a.962.962,0,0,1,.674-.315.918.918,0,0,1,.661.318l1.635,1.632a.9.9,0,0,1,0,1.374c-.12.129-.248.254-.369.369l-.03.029a7.2,7.2,0,0,0-.519.54l-.009.01A1.745,1.745,0,0,1,10.96,12.7ZM3.528.916a.49.49,0,0,0-.326.161L2.195,2.084a1.184,1.184,0,0,0-.36.769,4.148,4.148,0,0,0,.327,1.783,11.859,11.859,0,0,0,2.1,3.5,12.96,12.96,0,0,0,4.32,3.385,6.311,6.311,0,0,0,2.249.676c.044,0,.087,0,.125,0a1.238,1.238,0,0,0,.978-.41,7.639,7.639,0,0,1,.55-.573l.031-.03c.116-.111.238-.23.353-.353.238-.248.241-.449.014-.677L11.242,8.518a.451.451,0,0,0-.3-.162.5.5,0,0,0-.32.169L9.608,9.54a.807.807,0,0,1-.582.258.821.821,0,0,1-.378-.1l-.024-.013L8.6,9.675c-.082-.052-.177-.1-.276-.15l-.061-.031a3.32,3.32,0,0,1-.323-.179A11.1,11.1,0,0,1,5.263,6.878a6.64,6.64,0,0,1-.99-1.612l-.005-.014-.009-.024a.778.778,0,0,1,.2-.859l.025-.024c.235-.208.451-.427.681-.659l.057-.058L5.343,3.5l.127-.129a.534.534,0,0,0,.182-.331.534.534,0,0,0-.182-.331L4.661,1.9l-.143-.145-.143-.145L4.3,1.535c-.156-.158-.3-.308-.456-.45l-.009-.008A.471.471,0,0,0,3.528.916Z"
            transform="translate(-0.662 0.25)"/>
    </g>
</svg>
