<svg xmlns="http://www.w3.org/2000/svg" fill="currentColor" viewBox="0 0 49 34.708">
    <g transform="translate(0 -4)">
        <path
            d="M16.333,4H8.167A8.167,8.167,0,0,0,0,12.167v8.167a4.083,4.083,0,0,0,4.083,4.083H16.15A12.262,12.262,0,0,1,4.083,34.625a2.042,2.042,0,1,0,0,4.083A16.352,16.352,0,0,0,20.417,22.375V8.083A4.083,4.083,0,0,0,16.333,4Z"
           />
        <path
            d="M30.333,4H22.167A8.167,8.167,0,0,0,14,12.167v8.167a4.083,4.083,0,0,0,4.083,4.083H30.15A12.262,12.262,0,0,1,18.083,34.625a2.042,2.042,0,1,0,0,4.083A16.352,16.352,0,0,0,34.417,22.375V8.083A4.083,4.083,0,0,0,30.333,4Z"
            transform="translate(14.583)" />
    </g>
</svg>
